<svg xmlns="http://www.w3.org/2000/svg" width="48.662" height="66.535" viewBox="0 0 48.662 66.535">
  <g id="Group_1" data-name="Group 1" transform="translate(-1840.589 457.556)">
    <path id="Path_1" data-name="Path 1" d="M252.68,34.63a40.819,40.819,0,0,1-4.78,6.98,23.546,23.546,0,0,1-11.63,7.47c-3.33.9-4.67,2.82-4.82,6.25a8.2,8.2,0,0,0,3.69,7.37c.37.28.87.43,1.11,1a1.631,1.631,0,0,1-1.37-.26c-8.97-4.16-13.88-11.23-14.87-21a26.326,26.326,0,0,1,5.76-19.29c3.12-4.03,7.42-6.04,12.41-6.72a30.045,30.045,0,0,1,8.83.26c.31.05.72.33.92-.05.21-.41-.23-.66-.47-.92a15.758,15.758,0,0,0-2.81-2.04c-.26-.18-.77-.23-.71-.62.08-.47.6-.37.94-.36,5.11.14,9.87,1.42,13.9,4.68a26.1,26.1,0,0,1,9.61,18.04,23.4,23.4,0,0,1-2.19,12.55c-.15.32-.22.83-.65.83-.35,0-.39-.5-.58-.77a14.956,14.956,0,0,0-5.39-4.31,13.343,13.343,0,0,1-5.95-5.75A10.029,10.029,0,0,1,252.68,34.63Z" transform="translate(1620.719 -470.24)" fill="#002086"/>
    <path id="Path_24" data-name="Path 24" d="M241.89,76.18a10.728,10.728,0,0,1,2.89-1.1c1.42-.07,2.88-.06,4.3.01a10.242,10.242,0,0,1,2.89,1.12,28.628,28.628,0,0,0-3.03,2.4,3.523,3.523,0,0,1-4.35-.31A15.66,15.66,0,0,0,241.89,76.18Z" transform="translate(1620.719 -470.24)" fill="#002086"/>
    <path id="Path_25" data-name="Path 25" d="M254.14,58.76c-.97.14-1.55.94-2.36,1.49a4.285,4.285,0,0,1,4.55-3.03,16.693,16.693,0,0,0,4.68.27c.73-.12.51.44.38.82a7.274,7.274,0,0,1-3.52,3.51,5.8,5.8,0,0,0,1.14-1.86c.18-.71.07-1.23-.77-1.44-.92-.24-.84.37-.94.93a1.5,1.5,0,0,1-1.46,1.44c-.94.02-1.37-.63-1.53-1.49C254.27,59.19,254.37,58.94,254.14,58.76Z" transform="translate(1620.719 -470.24)" fill="#002086"/>
    <path id="Path_26" data-name="Path 26" d="M251.91,56.68a5.946,5.946,0,0,1,4.81-2.46c1.71-.07,3.43-.01,5.15,0a4.373,4.373,0,0,0,3.22-.78,4.576,4.576,0,0,1-4.2,2.51c-2.04-.05-4.07-.53-6.13-.11C253.78,56.04,252.89,56.46,251.91,56.68Z" transform="translate(1620.719 -470.24)" fill="#002086"/>
  </g>
</svg>
