<?xml version="1.0" encoding="utf-8"?>
<!-- Generator: Adobe Illustrator 27.0.1, SVG Export Plug-In . SVG Version: 6.00 Build 0)  -->
<svg version="1.1" id="Layer_1" xmlns="http://www.w3.org/2000/svg" xmlns:xlink="http://www.w3.org/1999/xlink" x="0px" y="0px"
	 viewBox="0 0 300 131.07" style="enable-background:new 0 0 300 131.07;" xml:space="preserve">
<style type="text/css">
	.st0{fill:#002086;}
</style>
<g>
	<path class="st0" d="M252.68,34.63c-1.43,2.49-2.9,4.87-4.78,6.98c-3.18,3.59-6.96,6.21-11.63,7.47c-3.33,0.9-4.67,2.82-4.82,6.25
		c-0.15,3.22,1.22,5.53,3.69,7.37c0.37,0.28,0.87,0.43,1.11,1c-0.54,0.21-0.96-0.07-1.37-0.26c-8.97-4.16-13.88-11.23-14.87-21
		c-0.72-7.19,1.37-13.63,5.76-19.29c3.12-4.03,7.42-6.04,12.41-6.72c2.96-0.4,5.9-0.21,8.83,0.26c0.31,0.05,0.72,0.33,0.92-0.05
		c0.21-0.41-0.23-0.66-0.47-0.92c-0.8-0.86-1.85-1.38-2.81-2.04c-0.26-0.18-0.77-0.23-0.71-0.62c0.08-0.47,0.6-0.37,0.94-0.36
		c5.11,0.14,9.87,1.42,13.9,4.68c5.73,4.64,8.77,10.76,9.61,18.04c0.51,4.4-0.38,8.56-2.19,12.55c-0.15,0.32-0.22,0.83-0.65,0.83
		c-0.35,0-0.39-0.5-0.58-0.77c-1.4-1.94-3.33-3.22-5.39-4.31c-2.55-1.35-4.63-3.15-5.95-5.75
		C253.12,36.92,252.81,35.82,252.68,34.63z"/>
	<path class="st0" d="M194.14,115.76c-1.91,2.05-4.04,2.89-6.38,3.21c-1.52,0.21-3.05,0.36-4.58,0.4
		c-5.84,0.13-11.68,0.36-17.46-0.79c-5.21-1.04-7.96-4.21-8.47-9.48c-0.31-3.2-0.29-6.36,0.75-9.43c1.01-2.97,3.12-4.87,6.01-5.95
		c1.84-0.69,3.79-0.88,5.73-0.98c5.91-0.31,11.81-0.55,17.72,0.09c2.39,0.26,4.49,1.07,6.23,2.76c0.41-0.4,0.26-0.84,0.26-1.22
		c-0.01-26.06-0.02-52.13-0.04-78.19c0-1.04-0.19-2.08-0.05-3.14c0.08-0.58,0.32-0.8,0.84-0.8c1.16,0,2.32,0,3.48,0
		c0.64,0,0.97,0.32,0.96,0.97c0,0.34,0.01,0.67,0.01,1.01c0,34.23,0,68.45,0,102.68c0,0.37-0.01,0.75,0,1.12
		c0.02,0.69-0.28,1.03-1.01,1.01c-1.01-0.03-2.02-0.03-3.03,0c-0.74,0.02-0.99-0.35-0.97-1.04
		C194.16,117.38,194.14,116.76,194.14,115.76z M178.47,96.47c-3.36,0.08-6.74-0.18-10.07,0.55c-2.74,0.6-4.56,2.14-5.17,4.96
		c-0.55,2.52-0.52,5.04-0.06,7.57c0.52,2.85,2.08,4.66,5.01,5.16c0.88,0.15,1.77,0.33,2.66,0.43c4.18,0.46,8.38,0.18,12.56,0.21
		c1.65,0.01,3.29-0.19,4.91-0.5c3.44-0.64,5.06-2.27,5.68-5.74c0.33-1.85,0.3-3.74,0.06-5.6c-0.58-4.5-2.24-6.08-6.73-6.73
		C184.38,96.36,181.42,96.55,178.47,96.47z"/>
	<path class="st0" d="M284.01,106.08c0-1.65,0.12-3.01-0.03-4.34c-0.27-2.53-1.88-4.11-4.59-4.7c-0.84-0.18-1.7-0.35-2.55-0.38
		c-5.72-0.2-11.45-0.5-17.15,0.29c-1.83,0.25-3.04,1.22-3.23,3.17c-0.07,0.67-0.46,0.88-1.07,0.88c-1.24,0-2.47-0.01-3.71,0
		c-0.77,0.01-1.03-0.39-1.08-1.11c-0.17-2.84,1.57-5.21,4.6-6.15c2.09-0.65,4.25-0.89,6.42-1.03c6.21-0.42,12.42-0.37,18.62,0.22
		c1.41,0.13,2.81,0.46,4.13,1.03c3.24,1.39,4.97,3.79,5.13,7.36c0.24,5.46,0.18,10.93,0.19,16.4c0,1.35-0.12,1.46-1.48,1.48
		c-1.01,0.01-2.02,0-3.03,0c-0.74,0-1.14-0.29-0.99-1.1c0.05-0.26,0.06-0.52,0.07-0.78c0.01-0.26,0.1-0.59-0.13-0.74
		c-0.34-0.22-0.53,0.16-0.73,0.35c-1.35,1.24-2.99,1.82-4.76,2.1c-3.01,0.48-6.04,0.48-9.07,0.46c-4.41-0.03-8.84,0.18-13.23-0.46
		c-1.53-0.22-2.99-0.63-4.33-1.47c-1.35-0.85-2.21-2.01-2.45-3.59c-0.26-1.71-0.28-3.44,0-5.15c0.45-2.65,2.24-4.01,4.7-4.71
		c1.57-0.45,3.18-0.53,4.78-0.6c6.51-0.29,13.02-0.28,19.52,0.2C280.53,103.85,282.33,104.58,284.01,106.08z M268.59,107.32
		c-0.37,0-0.75,0-1.12,0c-3.11,0.02-6.22-0.11-9.29,0.48c-1.87,0.36-2.94,1.57-3.04,3.37c-0.14,2.33,1.08,3.7,3.75,3.94
		c6.23,0.56,12.48,0.63,18.73,0.18c1.22-0.09,2.46-0.3,3.64-0.63c1.66-0.46,2.34-1.4,2.39-2.98c0.06-1.72-0.52-2.63-2.13-3.31
		c-0.73-0.31-1.49-0.48-2.27-0.6C275.7,107.25,272.15,107.31,268.59,107.32z"/>
	<path class="st0" d="M93.47,116.3c-2.96,2.95-6.48,3.01-10.02,3.22c-5.06,0.29-10.1,0.06-15.15-0.07
		c-1.46-0.04-2.91-0.26-4.32-0.64c-4.57-1.23-5.7-3.76-5.46-8.01c0.27-4.95,2.86-6.7,8.01-7.07c6.76-0.49,13.54-0.39,20.31-0.01
		c2.07,0.11,4.09,0.52,5.74,1.97c0.52,0.46,0.87,0.43,0.87-0.38c0.01-1.35,0.04-2.7-0.25-4.03c-0.48-2.24-2.27-3.83-4.97-4.24
		c-5.14-0.79-10.3-0.54-15.47-0.39c-1.19,0.04-2.39,0.19-3.57,0.37c-2.26,0.33-3.06,1.1-3.53,3.36c-0.11,0.54-0.4,0.79-0.91,0.8
		c-1.27,0.01-2.55,0.01-3.82,0c-0.64-0.01-0.9-0.35-0.96-0.99c-0.24-2.64,1.13-4.98,3.59-6.02c1.82-0.77,3.75-1.09,5.69-1.23
		c6.5-0.47,13.02-0.49,19.52-0.01c1.53,0.11,3.04,0.44,4.48,0.99c3.58,1.37,5.4,3.97,5.45,7.81c0.07,5.39,0.26,10.78,0.2,16.17
		c-0.01,1.02-0.4,1.42-1.41,1.35c-0.89-0.06-1.8-0.06-2.69,0c-1.04,0.07-1.45-0.35-1.33-1.37C93.51,117.48,93.47,117.07,93.47,116.3
		z M78.18,115.6c3.11,0.03,6.22,0.05,9.31-0.26c1.34-0.13,2.69-0.29,3.9-0.94c1.91-1.03,2.26-3.54,0.7-5.04
		c-1.21-1.16-2.78-1.4-4.35-1.56c-4.29-0.46-8.59-0.54-12.9-0.4c-2.54,0.08-5.1-0.01-7.6,0.55c-1.82,0.41-2.89,1.81-2.89,3.64
		c0.01,1.84,0.99,3.07,2.85,3.5c0.58,0.13,1.18,0.22,1.77,0.27C72.04,115.62,75.11,115.63,78.18,115.6z"/>
	<path class="st0" d="M28.03,107.8c-3.91-0.07-7.4,0.14-10.86-0.47c-1.04-0.18-2.05-0.44-3.01-0.89c-2.57-1.2-3.46-3.74-3.3-6.37
		c0.21-3.31,1.97-5.42,4.87-6.29c3.05-0.91,6.21-1,9.34-1.08c5.13-0.14,10.26-0.2,15.38,0.2c2.32,0.18,4.61,0.56,6.72,1.65
		c2.25,1.16,3.38,2.96,3.25,5.54c-0.04,0.8-0.29,1.17-1.11,1.15c-1.24-0.02-2.47-0.02-3.71,0.03c-0.65,0.02-0.89-0.27-0.9-0.86
		c-0.03-1.92-1.22-2.77-2.91-3.17c-1.87-0.44-3.78-0.61-5.68-0.65c-4.98-0.1-9.96-0.24-14.92,0.39c-0.86,0.11-1.71,0.23-2.52,0.55
		c-1.37,0.53-2.05,1.6-2,3.06c0.06,1.45,0.72,2.3,2.19,2.76c0.83,0.26,1.69,0.33,2.55,0.34c1.76,0.01,3.52,0.02,5.28,0.01
		c5.62-0.02,11.23,0.14,16.83,0.45c1.28,0.07,2.53,0.35,3.72,0.82c4.55,1.81,6.05,7.9,2.83,11.61c-1.42,1.63-3.42,2.15-5.44,2.4
		c-6.37,0.79-12.76,0.8-19.17,0.57c-2.99-0.11-5.99-0.1-8.94-0.75c-1.03-0.23-2.03-0.51-2.97-1c-3.13-1.6-3.4-4.45-3.23-7.17
		c0.03-0.45,0.33-0.66,0.76-0.66c1.42-0.01,2.85-0.01,4.27-0.01c0.64,0,0.84,0.41,0.82,0.97c-0.06,3.26,1.07,4.12,4.73,4.43
		c5.76,0.49,11.53,0.25,17.29,0.2c1.74-0.01,3.52-0.1,5.22-0.63c1.66-0.52,2.39-1.4,2.42-3.07c0.03-1.79-0.61-2.75-2.26-3.32
		c-1-0.34-2.03-0.53-3.09-0.54C36.2,107.96,31.9,107.69,28.03,107.8z"/>
	<path class="st0" d="M114.69,96.46c0.24,0,0.29,0.02,0.31,0c2.49-3.18,6.11-3.49,9.71-3.77c5.38-0.41,10.77-0.33,16.14,0.22
		c1.64,0.17,3.23,0.61,4.71,1.38c3.23,1.68,4.28,4.58,4.33,7.94c0.08,5.24,0.02,10.48,0.05,15.72c0.01,0.94-0.4,1.27-1.29,1.24
		c-0.93-0.03-1.87-0.05-2.81,0.01c-1,0.05-1.4-0.3-1.38-1.35c0.05-3.41-0.02-6.81,0.03-10.22c0.02-1.8-0.12-3.59-0.25-5.38
		c-0.19-2.65-1.52-4.28-4.1-5.01c-1.11-0.31-2.27-0.6-3.41-0.63c-4.86-0.15-9.73-0.4-14.57,0.38c-1.49,0.24-2.9,0.69-4.23,1.44
		c-1.89,1.06-2.84,2.65-3.06,4.79c-0.29,2.92-0.15,5.83-0.18,8.75c-0.02,2.06-0.03,4.12,0.02,6.18c0.02,0.79-0.26,1.09-1.02,1.07
		c-1.05-0.03-2.1-0.03-3.14,0.01c-0.88,0.03-1.17-0.35-1.16-1.21c0.02-4.01,0-8.01,0-12.02c0-3.93,0.03-7.86-0.02-11.79
		c-0.01-1.03,0.34-1.43,1.36-1.36c0.86,0.06,1.73,0.06,2.58,0c1.11-0.09,1.47,0.4,1.38,1.45C114.64,95.02,114.69,95.75,114.69,96.46
		z"/>
	<path class="st0" d="M215.64,96.03c2.48-2.78,5.77-3.24,9.21-3.4c3.97-0.18,7.92-0.25,11.88,0.2c5.14,0.59,8.09,3.62,8.23,8.79
		c0.1,3.79,0.47,3.19-3.05,3.22c-2.87,0.03-2.51,0.26-2.58-2.49c-0.02-0.78-0.15-1.56-0.29-2.34c-0.26-1.43-1.15-2.31-2.49-2.78
		c-0.96-0.34-1.95-0.59-2.96-0.64c-4.08-0.17-8.16-0.29-12.2,0.44c-3.9,0.7-5.54,2.77-5.86,7.16c-0.33,4.49-0.1,8.98-0.17,13.47
		c-0.02,1.49-0.05,1.54-1.49,1.55c-0.9,0.01-1.8-0.04-2.69,0.01c-0.99,0.06-1.3-0.36-1.3-1.32c0.03-4.23,0.01-8.46,0-12.69
		c0-3.63,0-7.26,0-10.89c0-1.38,0.07-1.44,1.48-1.45c0.94-0.01,1.87,0.03,2.81-0.01c0.88-0.04,1.22,0.35,1.18,1.21
		c-0.03,0.62-0.01,1.24-0.01,1.86C215.44,95.97,215.54,96,215.64,96.03z"/>
	<path class="st0" d="M33.42,75.95c0,2.93,0.01,5.87-0.01,8.8c0,0.62-0.1,1.23-0.15,1.85c-0.05,0.72-0.43,1.01-1.15,0.96
		c-0.79-0.06-0.8-0.62-0.78-1.17c0.06-1.58,0.14-3.16,0.23-4.74c0.15-2.7,0.3-5.4,0.48-8.09c0.1-1.46,0.46-1.72,1.76-1.62
		c0.78,0.06,0.91,0.6,1.07,1.16c0.91,3.16,1.82,6.31,2.72,9.47c0.07,0.26,0.15,0.51,0.31,1.08c0.31-1.06,0.53-1.85,0.77-2.63
		c0.78-2.63,1.61-5.25,2.33-7.9c0.3-1.09,0.94-1.26,1.9-1.18c1.05,0.08,0.93,0.83,0.97,1.52c0.22,3.85,0.44,7.71,0.65,11.56
		c0.03,0.46,0.03,0.93,0.03,1.39c0.01,0.63-0.09,1.14-0.93,1.15c-0.83,0.01-1.09-0.44-1.13-1.15c-0.1-2.08-0.17-4.17-0.28-6.25
		c-0.06-1.21,0.16-2.45-0.34-3.95c-0.98,3.32-1.85,6.36-2.77,9.38c-0.23,0.75-0.06,1.86-1.28,1.92c-1.28,0.06-1.12-1.1-1.32-1.83
		c-0.91-3.23-1.75-6.49-2.61-9.73C33.74,75.95,33.58,75.95,33.42,75.95z"/>
	<path class="st0" d="M120.18,79.83c0-1.93,0-3.86,0-5.8c0-1.92,0-1.91,1.95-2.22c1.01-0.16,2-0.13,2.99,0.14
		c2.93,0.8,3.99,4.3,1.93,6.54c-0.51,0.55-0.61,0.73,0.04,1.28c1.44,1.22,1.7,2.88,1.26,4.65c-0.42,1.69-1.53,2.72-3.23,3.12
		c-1.18,0.27-2.38,0.22-3.58,0.2c-0.95-0.02-1.39-0.42-1.36-1.42C120.21,84.16,120.18,81.99,120.18,79.83z M122.27,83.11
		c0,0.54-0.01,1.08,0,1.62c0.01,0.51,0.01,1.05,0.71,1.11c1.11,0.09,2.17-0.01,2.93-0.98c0.64-0.82,0.7-2.35,0.16-3.3
		c-0.56-0.98-1.97-1.56-3.14-1.22c-1.1,0.32-0.53,1.28-0.66,1.97C122.23,82.56,122.27,82.84,122.27,83.11z M122.27,76.12
		c0,0.23,0,0.46,0,0.69c0.01,1.57,0.45,1.91,1.95,1.51c0.22-0.06,0.44-0.15,0.64-0.26c1.02-0.54,1.44-1.8,1.01-3.01
		c-0.35-1-1.44-1.5-2.8-1.24c-1.33,0.26-0.6,1.35-0.8,2.07C122.25,75.96,122.27,76.05,122.27,76.12z"/>
	<path class="st0" d="M80.26,76.01c-0.29,0.47-0.15,0.9-0.16,1.3c-0.01,3.05-0.01,6.11,0,9.16c0,0.59-0.09,1.08-0.86,1.09
		c-0.76,0.01-0.89-0.44-0.89-1.06c0-4.48,0-8.97,0-13.45c0-0.47-0.02-0.97,0.62-1.07c0.72-0.1,1.39-0.07,1.79,0.71
		c0.79,1.55,1.6,3.09,2.39,4.64c0.98,1.93,1.93,3.87,3.11,5.79c0-1.26,0-2.53,0-3.79c0-2.01,0-4.02,0-6.03
		c0-0.68-0.05-1.37,0.96-1.35c0.98,0.03,0.95,0.72,0.95,1.39c0,4.29,0.01,8.58,0,12.87c0,0.51,0.14,1.17-0.62,1.31
		c-0.74,0.13-1.42,0.16-1.84-0.74c-1.6-3.48-3.62-6.74-5.15-10.25C80.5,76.37,80.39,76.22,80.26,76.01z"/>
	<path class="st0" d="M94.62,79.81c0-2.16,0.02-4.33-0.01-6.49c-0.02-0.92,0.32-1.33,1.26-1.39c1.12-0.07,2.22-0.31,3.35-0.14
		c3.7,0.54,5.84,2.9,6.11,6.72c0.11,1.48-0.07,2.93-0.49,4.35c-0.91,3.04-3.07,4.53-6.11,4.86c-0.95,0.1-1.93,0.03-2.9,0.01
		c-0.84-0.01-1.24-0.4-1.22-1.3C94.65,84.22,94.62,82.01,94.62,79.81z M96.57,79.84c0,1.66,0,3.32,0,4.97c0,0.48,0.03,0.95,0.68,1
		c1.95,0.13,3.73-0.19,4.86-1.99c1.1-1.74,1.29-3.67,0.97-5.68c-0.54-3.29-2.07-4.51-5.38-4.36c-0.85,0.04-1.16,0.36-1.14,1.19
		C96.59,76.6,96.57,78.22,96.57,79.84z"/>
	<path class="st0" d="M55.61,87.56c-0.75,0.1-1.14-0.27-1.32-0.98c-0.22-0.9-0.52-1.78-0.72-2.68c-0.17-0.79-0.62-1.03-1.4-1.04
		c-3.03-0.07-3.03-0.09-3.86,2.8c-0.13,0.45-0.25,0.9-0.41,1.33c-0.28,0.73-0.92,0.63-1.48,0.53c-0.73-0.14-0.44-0.7-0.33-1.11
		c0.78-2.91,1.57-5.81,2.37-8.72c0.43-1.56,0.9-3.12,1.32-4.68c0.2-0.75,0.6-1.08,1.4-1.07c0.76,0.01,1.21,0.25,1.43,1.03
		c1.25,4.54,2.52,9.08,3.8,13.61C56.62,87.31,56.48,87.71,55.61,87.56z M51.16,74.62c-0.2,0.82-0.37,1.49-0.54,2.16
		c-0.17,0.67-0.33,1.35-0.52,2.02c-0.68,2.33-1.02,2.15,1.84,2.16c0.63,0,0.83-0.21,0.65-0.84C52.11,78.34,51.66,76.55,51.16,74.62z
		"/>
	<path class="st0" d="M20.24,87.56c-0.75,0.1-1.14-0.27-1.32-0.98c-0.22-0.9-0.52-1.78-0.72-2.68c-0.17-0.79-0.62-1.03-1.4-1.04
		c-3.03-0.07-3.03-0.09-3.86,2.8c-0.13,0.45-0.25,0.9-0.41,1.33c-0.28,0.73-0.92,0.63-1.48,0.53c-0.73-0.14-0.44-0.7-0.33-1.11
		c0.78-2.91,1.57-5.81,2.37-8.72c0.43-1.56,0.9-3.12,1.32-4.68c0.2-0.75,0.6-1.08,1.4-1.07c0.76,0.01,1.21,0.25,1.43,1.03
		c1.25,4.54,2.52,9.08,3.8,13.61C21.25,87.31,21.11,87.71,20.24,87.56z M15.79,74.62c-0.2,0.82-0.37,1.49-0.54,2.16
		c-0.17,0.67-0.33,1.35-0.52,2.02c-0.68,2.33-1.02,2.15,1.84,2.16c0.63,0,0.83-0.21,0.65-0.84C16.73,78.34,16.29,76.55,15.79,74.62z
		"/>
	<path class="st0" d="M181.29,82.86c-2.11,0-2.11,0-2.67,2.1c-0.16,0.6-0.31,1.2-0.48,1.79c-0.1,0.34-0.23,0.69-0.63,0.76
		c-0.42,0.08-0.89,0.18-1.24-0.07c-0.44-0.32-0.14-0.79-0.03-1.17c1-3.57,2.01-7.14,3.02-10.7c0.24-0.85,0.5-1.71,0.68-2.57
		c0.17-0.78,0.6-1.07,1.38-1.07c0.82,0,1.29,0.29,1.5,1.11c0.61,2.31,1.26,4.62,1.91,6.93c0.61,2.16,1.24,4.3,1.83,6.47
		c0.1,0.38,0.5,1.01-0.27,1.11c-0.61,0.08-1.44,0.38-1.68-0.67c-0.2-0.86-0.53-1.7-0.69-2.57c-0.2-1.14-0.82-1.59-1.94-1.43
		C181.76,82.89,181.53,82.86,181.29,82.86z M181.33,74.92c-0.41,1.47-0.73,2.66-1.06,3.85c-0.65,2.36-1.09,2.18,1.76,2.2
		c0.75,0,0.96-0.26,0.75-0.97C182.31,78.4,181.87,76.81,181.33,74.92z"/>
	<path class="st0" d="M157.3,79.75c0-2.2,0.02-4.4-0.01-6.6c-0.01-0.9,0.35-1.24,1.24-1.22c1.62,0.04,3.24,0.02,4.86,0.01
		c0.67,0,1.12,0.17,1.12,0.97c0,0.79-0.36,1.13-1.12,1.12c-1,0-2.01,0.02-3.01,0.01c-0.68,0-0.99,0.31-0.98,0.99
		c0.03,4.14-0.47,3.31,3.07,3.41c0.35,0.01,0.7,0,1.04,0.02c0.6,0.04,0.76,0.44,0.75,0.96c-0.01,0.52-0.17,0.92-0.78,0.94
		c-1,0.02-2.01,0.04-3.01,0.02c-0.71-0.01-1.1,0.22-1.08,0.99c0.02,1.08,0.02,2.16,0,3.24c-0.01,0.75,0.34,1.03,1.06,1.02
		c1.04-0.02,2.08,0.01,3.13,0c0.71-0.01,1.2,0.16,1.18,1.02c-0.02,0.8-0.48,0.94-1.14,0.94c-1.7-0.01-3.4-0.04-5.1,0.01
		c-0.91,0.02-1.24-0.35-1.23-1.23C157.32,84.15,157.3,81.95,157.3,79.75z"/>
	<path class="st0" d="M130.39,79.75c0-2.16,0.04-4.33-0.01-6.49c-0.02-1.02,0.37-1.37,1.37-1.34c1.51,0.05,3.01,0.02,4.52,0.01
		c0.71,0,1.32,0.07,1.33,1.02c0.01,0.92-0.54,1.09-1.28,1.08c-0.93-0.01-1.86,0.02-2.78,0c-0.73-0.01-1.05,0.32-1.05,1.05
		c0.03,4.02-0.44,3.27,3.03,3.34c0.35,0.01,0.7,0.01,1.04,0.02c0.59,0.02,0.8,0.38,0.8,0.92c0,0.58-0.19,0.98-0.85,0.99
		c-0.93,0.01-1.86,0.05-2.78,0c-0.88-0.04-1.29,0.26-1.25,1.19c0.05,0.96,0.04,1.93,0,2.9c-0.03,0.83,0.28,1.21,1.15,1.18
		c1.04-0.04,2.09,0.01,3.13-0.01c0.69-0.01,1.1,0.21,1.09,0.99c-0.01,0.79-0.44,0.97-1.12,0.96c-1.7-0.02-3.4-0.04-5.1,0.01
		c-0.9,0.02-1.27-0.33-1.24-1.22c0.03-1.12,0.01-2.24,0.01-3.36C130.39,81.92,130.39,80.83,130.39,79.75z"/>
	<path class="st0" d="M170.38,87.57c-1.2,0-2.4,0.02-3.6-0.01c-1.07-0.02-1.37-0.48-0.98-1.49c0.14-0.36,0.35-0.69,0.54-1.02
		c1.82-3.23,3.65-6.46,5.46-9.7c0.65-1.16,0.57-1.3-0.73-1.32c-1.2-0.01-2.4-0.01-3.6,0c-0.72,0.01-1.18-0.19-1.18-1.04
		c-0.01-0.84,0.41-1.06,1.15-1.06c2.13,0.01,4.25-0.01,6.38,0.01c1.34,0.01,1.69,0.52,1.07,1.74c-0.94,1.82-1.98,3.59-2.97,5.38
		c-1.03,1.86-2.03,3.73-3.11,5.57c-0.51,0.87-0.22,1.02,0.64,1c1.51-0.04,3.02,0,4.52-0.01c0.69,0,1.22,0.1,1.22,0.99
		c0,0.9-0.55,0.97-1.23,0.97C172.78,87.56,171.58,87.57,170.38,87.57z"/>
	<path class="st0" d="M69.1,79.66c0-2.16,0.03-4.33-0.01-6.49c-0.02-0.89,0.32-1.26,1.22-1.24c1.62,0.04,3.25,0.02,4.87,0.01
		c0.67,0,1.13,0.2,1.13,0.98c0,0.78-0.39,1.12-1.15,1.11c-1.04-0.01-2.09,0.01-3.13,0c-0.68-0.01-1.01,0.3-0.98,0.98
		c0,0.08,0,0.15,0,0.23c0.05,3.79-0.49,3.11,3.05,3.18c0.31,0.01,0.62,0.01,0.93,0.01c0.63,0,0.89,0.34,0.88,0.95
		c0,0.6-0.22,0.96-0.87,0.96c-0.97,0-1.93,0.04-2.9,0c-0.79-0.03-1.14,0.27-1.11,1.08c0.04,1,0.04,2.01,0,3.01
		c-0.03,0.84,0.27,1.21,1.14,1.17c1.08-0.04,2.16,0,3.25-0.01c0.67,0,1.13,0.2,1.14,0.97c0.02,0.78-0.42,0.99-1.1,0.98
		c-1.74-0.01-3.48-0.03-5.22,0.01c-0.86,0.02-1.17-0.36-1.15-1.18c0.03-1.12,0.01-2.24,0-3.36C69.1,81.91,69.1,80.79,69.1,79.66z"/>
	<path class="st0" d="M107.13,79.74c0-2.16,0.03-4.33-0.02-6.49c-0.02-0.92,0.26-1.35,1.25-1.32c1.58,0.05,3.17,0.02,4.75,0.01
		c0.69,0,1.1,0.21,1.09,0.99c-0.01,0.73-0.33,1.08-1.04,1.09c-0.97,0.01-1.93,0.04-2.9,0.01c-0.81-0.02-1.21,0.25-1.2,1.13
		c0.07,3.95-0.51,3.17,3.2,3.28c0.66,0.02,1.59-0.33,1.66,0.86c0.04,0.63-0.17,1.06-0.89,1.06c-0.97,0-1.93,0.03-2.9,0
		c-0.71-0.02-1.09,0.22-1.07,0.99c0.03,1.08,0.03,2.16,0,3.24c-0.02,0.75,0.32,1.04,1.05,1.02c1.08-0.02,2.16,0.01,3.24,0
		c0.7-0.01,1.08,0.25,1.07,1.02c-0.01,0.71-0.37,0.94-1.02,0.94c-1.74-0.01-3.48-0.02-5.21,0.01c-0.81,0.01-1.09-0.34-1.08-1.12
		C107.15,84.22,107.13,81.98,107.13,79.74z"/>
	<path class="st0" d="M57.54,80.01c-0.11-2.11,0.34-4.06,1.58-5.81c1.54-2.17,4.76-3.16,7.26-2.24c0.79,0.29,0.97,0.74,0.75,1.52
		c-0.23,0.81-0.72,0.58-1.27,0.46c-3.49-0.78-5.98,1.07-6.2,4.64c-0.08,1.23-0.14,2.47,0.19,3.69c0.77,2.86,2.98,4.14,5.85,3.38
		c0.59-0.16,1.2-0.51,1.47,0.45c0.28,0.96-0.31,1.27-1.04,1.45c-4.47,1.07-8-1.01-8.59-6.03C57.49,81.02,57.54,80.51,57.54,80.01z"
		/>
	<path class="st0" d="M22.77,79.67c0-2.12-0.01-4.24,0.01-6.37c0.01-0.56-0.04-1.21,0.77-1.34c1-0.15,1.29,0.37,1.28,1.27
		c-0.02,3.47-0.01,6.95,0,10.42c0,0.31,0.02,0.62,0,0.93c-0.03,0.74,0.31,1.05,1.05,1.03c1-0.02,2.01,0,3.01,0
		c0.71-0.01,1.32,0.04,1.31,1.01c-0.02,0.9-0.58,0.95-1.25,0.94c-1.62-0.01-3.24-0.04-4.86,0.01c-0.98,0.03-1.31-0.43-1.31-1.31
		C22.78,84.07,22.78,81.87,22.77,79.67C22.78,79.67,22.77,79.67,22.77,79.67z"/>
	<path class="st0" d="M148.46,79.71c0-2.2,0.01-4.4-0.01-6.6c0-0.72,0.17-1.2,1.03-1.17c0.81,0.02,0.92,0.51,0.92,1.16
		c-0.01,3.4-0.01,6.79,0,10.19c0.01,2.54-0.27,2.32,2.27,2.33c0.73,0,1.47,0.01,2.2,0.01c0.68,0,0.97,0.36,0.99,1.01
		c0.01,0.7-0.37,0.94-1.02,0.94c-1.77-0.01-3.55-0.02-5.32,0.01c-0.83,0.01-1.07-0.4-1.06-1.15
		C148.47,84.19,148.46,81.95,148.46,79.71z"/>
	<path class="st0" d="M139.64,79.68c0-1.89-0.06-3.79,0.03-5.67c0.03-0.74-0.61-2,0.92-2.03c1.54-0.04,0.96,1.23,0.98,1.97
		c0.06,3.43,0.06,6.87,0,10.31c-0.02,1.08,0.36,1.45,1.41,1.38c1-0.07,2.01,0,3.01-0.01c0.67-0.01,0.98,0.31,0.98,0.98
		c0.01,0.69-0.3,0.97-0.98,0.97c-1.78-0.02-3.55-0.02-5.33,0c-0.85,0.01-1.03-0.46-1.03-1.18
		C139.65,84.15,139.64,81.92,139.64,79.68z"/>
	<path class="st0" d="M241.89,76.18c1.1-0.44,1.98-1.05,2.89-1.1c1.42-0.07,2.88-0.06,4.3,0.01c0.9,0.04,1.77,0.66,2.89,1.12
		c-1.26,0.72-2.05,1.68-3.03,2.4c-1.25,0.93-3.25,0.77-4.35-0.31C243.83,77.53,242.98,76.89,241.89,76.18z"/>
	<path class="st0" d="M254.14,58.76c-0.97,0.14-1.55,0.94-2.36,1.49c0.33-1.8,2.55-3.27,4.55-3.03c1.56,0.19,3.09,0.52,4.68,0.27
		c0.73-0.12,0.51,0.44,0.38,0.82c-0.41,1.2-1.88,2.72-3.52,3.51c0.53-0.72,0.98-1.22,1.14-1.86c0.18-0.71,0.07-1.23-0.77-1.44
		c-0.92-0.24-0.84,0.37-0.94,0.93c-0.14,0.81-0.59,1.43-1.46,1.44c-0.94,0.02-1.37-0.63-1.53-1.49
		C254.27,59.19,254.37,58.94,254.14,58.76z"/>
	<path class="st0" d="M251.91,56.68c1.19-1.62,2.85-2.39,4.81-2.46c1.71-0.07,3.43-0.01,5.15,0c1.07,0,2.16,0.11,3.22-0.78
		c-0.76,1.63-2.55,2.55-4.2,2.51c-2.04-0.05-4.07-0.53-6.13-0.11C253.78,56.04,252.89,56.46,251.91,56.68z"/>
	<path class="st0" d="M75.36,68.82c-0.04,0.08-0.07,0.2-0.15,0.28c-0.64,0.71-1.27,1.43-1.95,2.1c-0.35,0.34-0.88,0.45-1.27,0.14
		c-0.5-0.39,0.02-0.75,0.21-1.07c0.61-1,1.14-2.17,2.68-1.83C75.09,68.49,75.36,68.45,75.36,68.82z"/>
</g>
</svg>
